<?xml version="1.0" encoding="UTF-8"?>
<svg width="700pt" height="700pt" version="1.1" viewBox="0 0 700 550" xmlns="http://www.w3.org/2000/svg" xmlns:xlink="http://www.w3.org/1999/xlink">
<g>
  <path d="m286.33 68.648c4.3047 42.191 33.219 67.828 63.547 68.188h0.15625c30.309-0.35547 59.211-25.988 63.559-68.152l43.523 13.871c25.691 8.168 36.941 19.605 56.941 38.078l75.93 70.031-54.406 66.57-35.461-32.637v-42.777c0.58984-11.543-17.043-11.543-16.457 0v312.57l-267.43-0.070312v-312.5c0.09375-4.6602-3.7031-8.4609-8.3633-8.3633-4.5352 0.03125-8.207 3.7891-8.1094 8.3633v42.777l-35.418 32.574-54.41-66.527 75.891-70.008c20.035-18.473 31.277-29.941 56.977-38.109zm16.359-1.0312c15.688 3.3398 31.02 4.8984 47.32 4.8047 16.258 0.125 31.527-1.4258 47.184-4.7344-3.6289 35.07-26.113 52.371-47.246 52.664-21.133-0.29297-43.625-17.605-47.258-52.734zm103.45-18.605c-1.5195-0.03125-3.0117 0.39062-4.3359 1.168-17.242 4.4062-33.477 5.8984-52.086 5.8672-18.598 0-35.125-1.5625-52.859-6.1914-1-0.39062-2.0391-0.58984-3.0781-0.55469-1.2266 0.03125-2.4648 0.32422-3.5586 0.87891l-52.371 16.656c-28.746 9.1328-43.363 23.395-63.16 41.672l-81.641 75.289c-3.2109 2.957-3.6016 7.9102-0.81641 11.281l64.855 79.297c2.9805 3.7031 8.4883 4.1133 11.988 0.87891l30.688-28.266v255.57c-0.03125 4.5742 3.6914 8.293 8.2617 8.2617h283.86c4.5352 0 8.2305-3.6914 8.2305-8.2305l0.003907-255.62 30.719 28.293c3.5039 3.2344 8.9805 2.8203 11.996-0.87891l64.84-79.297c2.7188-3.3789 2.3633-8.293-0.83984-11.25l-81.594-75.285c-19.836-18.242-34.422-32.574-63.168-41.707l-51.328-16.301c-1.3633-0.96484-2.957-1.4883-4.6055-1.5273z" fill-rule="evenodd"/>
  <!-- <use x="70" y="653.332031" xlink:href="#f"/>
  <use x="92.832031" y="653.332031" xlink:href="#e"/>
  <use x="108.175781" y="653.332031" xlink:href="#b"/>
  <use x="129.273437" y="653.332031" xlink:href="#j"/>
  <use x="150.269531" y="653.332031" xlink:href="#a"/>
  <use x="165.140625" y="653.332031" xlink:href="#b"/>
  <use x="186.242188" y="653.332031" xlink:href="#i"/>
  <use x="219.34375" y="653.332031" xlink:href="#h"/>
  <use x="241.613281" y="653.332031" xlink:href="#g"/>
  <use x="272.722656" y="653.332031" xlink:href="#f"/>
  <use x="295.554688" y="653.332031" xlink:href="#d"/>
  <use x="317.703125" y="653.332031" xlink:href="#s"/>
  <use x="339.972656" y="653.332031" xlink:href="#d"/>
  <use x="362.121094" y="653.332031" xlink:href="#a"/>
  <use x="376.996094" y="653.332031" xlink:href="#c"/>
  <use x="70" y="684.445312" xlink:href="#r"/>
  <use x="83.535156" y="684.445312" xlink:href="#e"/>
  <use x="98.878906" y="684.445312" xlink:href="#c"/>
  <use x="120.25" y="684.445312" xlink:href="#q"/>
  <use x="163.5" y="684.445312" xlink:href="#a"/>
  <use x="178.371094" y="684.445312" xlink:href="#p"/>
  <use x="200.519531" y="684.445312" xlink:href="#b"/>
  <use x="232.453125" y="684.445312" xlink:href="#o"/>
  <use x="258.488281" y="684.445312" xlink:href="#c"/>
  <use x="279.863281" y="684.445312" xlink:href="#d"/>
  <use x="302.011719" y="684.445312" xlink:href="#n"/>
  <use x="334.992188" y="684.445312" xlink:href="#m"/>
  <use x="357.792969" y="684.445312" xlink:href="#e"/>
  <use x="373.136719" y="684.445312" xlink:href="#c"/>
  <use x="394.507812" y="684.445312" xlink:href="#l"/>
  <use x="405.171875" y="684.445312" xlink:href="#b"/>
  <use x="426.273437" y="684.445312" xlink:href="#k"/>
  <use x="444.714844" y="684.445312" xlink:href="#a"/> -->
 </g>
</svg>
