<?xml version="1.0" encoding="UTF-8"?>
<svg width="700pt" height="700pt" version="1.1" viewBox="0 0 700 550" xmlns="http://www.w3.org/2000/svg" xmlns:xlink="http://www.w3.org/1999/xlink">
<g>
  <path d="m263.93 91.957c19.832 4.1797 45.527 7 77.832 7.4219l-0.054687 76.055c-0.58984 11.543 17.004 11.574 16.457 0.03125l0.03125-76.086c4.4062-0.070312 8.8125-0.12891 12.961-0.26562l-0.44141 73.801c-0.097656 17.598-8.7539 27.578-22.133 30.172 0 0.023437-0.03125 0-0.03125 0-0.16797 0.023437-0.32422 0.09375-0.49219 0.125-3.9492 0.74609-6.7695 4.2812-6.6758 8.293l-76.387 310.83h-85.098l38.496-338.07c20.551-2.1406 37.109-18.5 39.766-41.84zm172.15 0 5.7695 50.457c2.6875 23.301 19.145 39.598 39.629 41.84l38.504 338.07h-85.105l-75.09-305.53c16.301-6.7461 27.285-23.301 27.422-43.781l0.42188-74.797c18.887-1.2969 35.059-3.4375 48.449-6.2578zm33.73-10.18 9.7578 85.594c-11.574-2.3086-19.582-11.18-21.355-26.836l-6.0312-52.59c6.7383-1.9531 12.574-4.0273 17.629-6.168zm-239.72-0.023438c5.0586 2.1641 10.957 4.2383 17.727 6.2227l-6.0547 52.559c-1.7852 15.688-9.8242 24.598-21.453 26.875zm4.7031-41c20.84 9.7891 53.113 19.121 115.21 19.121 62.055 0 94.398-9.332 115.2-19.121l2.7188 23.789c-17.789 8.6172-54.574 18.543-117.92 18.543-63.422 0-100.18-9.9258-117.97-18.543zm-6.8359-19.379c-4.2812-0.097656-7.9414 3.043-8.4297 7.293l-57.039 500.96c-0.52344 4.8594 3.2773 9.1328 8.1641 9.1328h100.82c3.7891 0 7.0938-2.5586 8.0078-6.2461l70.453-286.81 70.453 286.81c0.94141 3.6602 4.2109 6.2461 8.0078 6.2461h100.82c4.8984 0 8.7188-4.2734 8.1641-9.1328l-56.949-500.96c-0.71484-5.8672-7.1914-9.1094-12.312-6.1211-16.109 9.332-48.809 20.863-118.12 20.863-69.32 0-102.02-11.531-118.17-20.863-1.1562-0.71484-2.5117-1.1016-3.875-1.168z"/>
  <use x="70" y="653.332031" xlink:href="#f"/>
  <use x="92.832031" y="653.332031" xlink:href="#e"/>
  <use x="108.175781" y="653.332031" xlink:href="#b"/>
  <use x="129.273437" y="653.332031" xlink:href="#j"/>
  <use x="150.269531" y="653.332031" xlink:href="#a"/>
  <use x="165.140625" y="653.332031" xlink:href="#b"/>
  <use x="186.242188" y="653.332031" xlink:href="#i"/>
  <use x="219.34375" y="653.332031" xlink:href="#h"/>
  <use x="241.613281" y="653.332031" xlink:href="#g"/>
  <use x="272.722656" y="653.332031" xlink:href="#f"/>
  <use x="295.554688" y="653.332031" xlink:href="#d"/>
  <use x="317.703125" y="653.332031" xlink:href="#s"/>
  <use x="339.972656" y="653.332031" xlink:href="#d"/>
  <use x="362.121094" y="653.332031" xlink:href="#a"/>
  <use x="376.996094" y="653.332031" xlink:href="#c"/>
  <use x="70" y="684.445312" xlink:href="#r"/>
  <use x="83.535156" y="684.445312" xlink:href="#e"/>
  <use x="98.878906" y="684.445312" xlink:href="#c"/>
  <use x="120.25" y="684.445312" xlink:href="#q"/>
  <use x="163.5" y="684.445312" xlink:href="#a"/>
  <use x="178.371094" y="684.445312" xlink:href="#p"/>
  <use x="200.519531" y="684.445312" xlink:href="#b"/>
  <use x="232.453125" y="684.445312" xlink:href="#o"/>
  <use x="258.488281" y="684.445312" xlink:href="#c"/>
  <use x="279.863281" y="684.445312" xlink:href="#d"/>
  <use x="302.011719" y="684.445312" xlink:href="#n"/>
  <use x="334.992188" y="684.445312" xlink:href="#m"/>
  <use x="357.792969" y="684.445312" xlink:href="#e"/>
  <use x="373.136719" y="684.445312" xlink:href="#c"/>
  <use x="394.507812" y="684.445312" xlink:href="#l"/>
  <use x="405.171875" y="684.445312" xlink:href="#b"/>
  <use x="426.273437" y="684.445312" xlink:href="#k"/>
  <use x="444.714844" y="684.445312" xlink:href="#a"/>
 </g>
</svg>
