<?xml version="1.0" encoding="UTF-8"?>
<svg width="700pt" height="700pt" version="1.1" viewBox="0 0 700 550" xmlns="http://www.w3.org/2000/svg" xmlns:xlink="http://www.w3.org/1999/xlink">
<g>
  <path d="m539.27 481.17h54.707v23.527h-54.383zm-433.29 0h54.676l-0.32422 23.527-54.352-0.003907zm115.02-20.578h257.9v23.527h-257.9zm225.43-384.09c12.637 3.9141 27.578 9.5898 40.992 16.559 16.527 8.5195 30.109 19.414 34.121 27.871l72.434 152.96v193.18h-54.863l-2.0156-154.88c0-0.96875-0.15625-1.8867-0.48047-2.7891l-41.773-111.41c-3.2109-8.5859-15.949-6.2891-15.949 2.8867v245.61h-257.89v-245.61c0-9.1406-12.699-11.441-15.91-2.8867l-41.77 111.42c-0.32422 0.90234-0.49219 1.8164-0.49219 2.7891l-2.0117 154.88-54.836-0.003906v-193.18l72.402-152.97c4.0508-8.5547 17.473-19.344 33.77-27.871 13.223-6.9375 27.969-12.645 40.543-16.559 11.273 49.609 50.719 85.719 96.738 86.266h0.23047c46.004-0.54297 85.477-36.648 96.766-86.258zm-159.84-15.949c5.1211 40.801 33.543 65.559 63.293 65.91h0.19141c29.75-0.35547 58.07-25.043 63.262-65.789l16.203 8.9531c-9.0664 44.297-41.895 76.086-79.973 76.609-38.051-0.52344-70.84-32.25-79.949-76.516zm18.668-3.7891c14.809 2.8555 29.324 5.4062 44.781 5.2812 15.363 0.125 29.887-2.4062 44.625-5.25-4.2383 33.73-23.973 52.891-44.684 53.211-20.707-0.32422-40.48-19.48-44.723-53.242zm96.18-16.918c-17.148 4.2383-33.184 5.8672-51.789 5.8672-18.609-0.03125-35.199-1.3242-52.922-6.2539-3.2109-0.87891-4.8281-0.42188-7.3242 0.90234l-33.668 18.082c-14.91 4.082-33.93 10.922-51.238 19.992-17.691 9.2656-33.832 20.285-40.992 35.422l-73.207 154.65c-0.52344 1.1016-0.81641 2.3086-0.81641 3.5352v240.85c0.03125 4.5352 3.7031 8.2305 8.2305 8.2305h70.754c4.5039 0 8.1641-3.6289 8.2305-8.1328l2.5625-199.14 25.305-67.566v246.03c0 4.5352 3.7031 8.2305 8.2305 8.2305h274.33c4.5742 0.03125 8.2617-3.6602 8.2617-8.2305l0.007812-246.01 25.281 67.543 2.5586 199.14c0.070313 4.5039 3.7344 8.1328 8.2383 8.1328h70.742c4.5352 0 8.1953-3.6914 8.1953-8.2305l-0.003906-240.85c0.03125-1.2266-0.25391-2.4336-0.77344-3.5352l-73.223-154.64c-7.1914-15.23-23.527-26.16-41.414-35.422-17.527-9.0781-36.781-15.949-51.719-20.031l-32.637-17.949c-3.4648-1.918-5.9961-1.3945-9.2031-0.61719z" fill-rule="evenodd"/>
  <use x="70" y="653.332031" xlink:href="#f"/>
  <use x="92.832031" y="653.332031" xlink:href="#e"/>
  <use x="108.175781" y="653.332031" xlink:href="#b"/>
  <use x="129.273437" y="653.332031" xlink:href="#j"/>
  <use x="150.269531" y="653.332031" xlink:href="#a"/>
  <use x="165.140625" y="653.332031" xlink:href="#b"/>
  <use x="186.242188" y="653.332031" xlink:href="#i"/>
  <use x="219.34375" y="653.332031" xlink:href="#h"/>
  <use x="241.613281" y="653.332031" xlink:href="#g"/>
  <use x="272.722656" y="653.332031" xlink:href="#f"/>
  <use x="295.554688" y="653.332031" xlink:href="#d"/>
  <use x="317.703125" y="653.332031" xlink:href="#s"/>
  <use x="339.972656" y="653.332031" xlink:href="#d"/>
  <use x="362.121094" y="653.332031" xlink:href="#a"/>
  <use x="376.996094" y="653.332031" xlink:href="#c"/>
  <use x="70" y="684.445312" xlink:href="#r"/>
  <use x="83.535156" y="684.445312" xlink:href="#e"/>
  <use x="98.878906" y="684.445312" xlink:href="#c"/>
  <use x="120.25" y="684.445312" xlink:href="#q"/>
  <use x="163.5" y="684.445312" xlink:href="#a"/>
  <use x="178.371094" y="684.445312" xlink:href="#p"/>
  <use x="200.519531" y="684.445312" xlink:href="#b"/>
  <use x="232.453125" y="684.445312" xlink:href="#o"/>
  <use x="258.488281" y="684.445312" xlink:href="#c"/>
  <use x="279.863281" y="684.445312" xlink:href="#d"/>
  <use x="302.011719" y="684.445312" xlink:href="#n"/>
  <use x="334.992188" y="684.445312" xlink:href="#m"/>
  <use x="357.792969" y="684.445312" xlink:href="#e"/>
  <use x="373.136719" y="684.445312" xlink:href="#c"/>
  <use x="394.507812" y="684.445312" xlink:href="#l"/>
  <use x="405.171875" y="684.445312" xlink:href="#b"/>
  <use x="426.273437" y="684.445312" xlink:href="#k"/>
  <use x="444.714844" y="684.445312" xlink:href="#a"/>
 </g>
</svg>
