<?xml version="1.0" encoding="UTF-8"?>
<svg width="700pt" height="700pt" version="1.1" viewBox="0 0 700 550" xmlns="http://www.w3.org/2000/svg" xmlns:xlink="http://www.w3.org/1999/xlink">
<g>
  <path d="m262.8 78.477 22.75 71.848c1.6484 5.2188 7.8711 7.3906 12.445 4.3125l36.688-24.695c2.2656 2.1406 4.6055 4.1133 7.0391 6v354.21l-120.73-0.003906v-283.25c-0.03125-9.1328-12.699-11.43-15.949-2.9102l-41.738 111.45c-0.32422 0.91406-0.49219 1.8477-0.52344 2.7891l-2.4648 192.51h-54.367v-230.82l71.879-151.89c14.031-19.09 29.195-24.148 54.508-35.684zm174.25 0 30.465 13.871c25.305 11.531 40.477 16.594 54.508 35.684l71.879 151.89v230.81h-54.316l-2.4961-192.51c0-0.94141-0.19141-1.8398-0.51562-2.7578l-41.289-111.41c-3.1797-8.5859-15.879-6.3203-15.949 2.8438l-0.44922 283.24h-120.68v-354.25c2.3945-1.8867 4.7305-3.8594 7-5.9688l36.711 24.695c4.5352 3.0781 10.758 0.90234 12.445-4.3125zm-143.93-22.301c5.8672 19.906 15.91 43.008 30.395 61.449l-25.637 17.242-20.539-65.078zm113.62 0 15.785 13.613-20.574 65.039-25.605-17.242c14.484-18.434 24.535-41.543 30.395-61.41zm-97.09-3.1133c13.359 2.957 26.48 4.0273 40.352 3.8594 13.84 0.16797 26.93-0.87109 40.215-3.8281-7.6836 23.078-22.492 50.594-40.312 66.109-17.832-15.516-32.602-43.062-40.254-66.141zm92.586-20.117c-1.2617 0-2.4883 0.29297-3.6289 0.80078-16.234 5.1836-31.309 6.9023-48.707 6.9023-17.402-0.03125-32.574-1.4883-48.777-6.9023-1.293-0.44922-2.6211-0.71484-3.7266-0.74219-2.3086-0.097656-4.4375 1.125-5.9297 2.8828l-28.199 24.273-37.781 17.203c-24.797 11.305-44.5 18.242-61.219 41.191-0.32422 0.42187-0.57813 0.87109-0.81641 1.3242l-73.199 154.66c-0.49219 1.1016-0.77734 2.2969-0.77734 3.5039v240.92c0.03125 4.5352 3.7031 8.2305 8.2305 8.2305h70.754c4.5039 0 8.1641-3.6328 8.1953-8.1367l2.5938-199.17 25.238-67.504v246c0 4.5742 3.7344 8.2305 8.2695 8.2305h274.36c4.5352-0.023438 8.1953-3.6914 8.2305-8.2305l0.35547-245.81 24.957 67.281 2.5586 199.2c0.070312 4.5039 3.7344 8.1367 8.2383 8.1367h70.742c4.5352 0 8.1953-3.6914 8.1953-8.2305v-240.93c0-1.1992-0.29297-2.3945-0.80078-3.5039l-73.184-154.64c-0.22266-0.45312-0.48047-0.90234-0.77344-1.3242-16.758-22.949-36.492-29.887-61.281-41.191l-37.789-17.203-27.93-24.109c-1.5664-1.957-3.8945-3.1172-6.3945-3.1172z"/>
  <use x="70" y="653.332031" xlink:href="#f"/>
  <use x="92.832031" y="653.332031" xlink:href="#e"/>
  <use x="108.175781" y="653.332031" xlink:href="#b"/>
  <use x="129.273437" y="653.332031" xlink:href="#j"/>
  <use x="150.269531" y="653.332031" xlink:href="#a"/>
  <use x="165.140625" y="653.332031" xlink:href="#b"/>
  <use x="186.242188" y="653.332031" xlink:href="#i"/>
  <use x="219.34375" y="653.332031" xlink:href="#h"/>
  <use x="241.613281" y="653.332031" xlink:href="#g"/>
  <use x="272.722656" y="653.332031" xlink:href="#f"/>
  <use x="295.554688" y="653.332031" xlink:href="#d"/>
  <use x="317.703125" y="653.332031" xlink:href="#s"/>
  <use x="339.972656" y="653.332031" xlink:href="#d"/>
  <use x="362.121094" y="653.332031" xlink:href="#a"/>
  <use x="376.996094" y="653.332031" xlink:href="#c"/>
  <use x="70" y="684.445312" xlink:href="#r"/>
  <use x="83.535156" y="684.445312" xlink:href="#e"/>
  <use x="98.878906" y="684.445312" xlink:href="#c"/>
  <use x="120.25" y="684.445312" xlink:href="#q"/>
  <use x="163.5" y="684.445312" xlink:href="#a"/>
  <use x="178.371094" y="684.445312" xlink:href="#p"/>
  <use x="200.519531" y="684.445312" xlink:href="#b"/>
  <use x="232.453125" y="684.445312" xlink:href="#o"/>
  <use x="258.488281" y="684.445312" xlink:href="#c"/>
  <use x="279.863281" y="684.445312" xlink:href="#d"/>
  <use x="302.011719" y="684.445312" xlink:href="#n"/>
  <use x="334.992188" y="684.445312" xlink:href="#m"/>
  <use x="357.792969" y="684.445312" xlink:href="#e"/>
  <use x="373.136719" y="684.445312" xlink:href="#c"/>
  <use x="394.507812" y="684.445312" xlink:href="#l"/>
  <use x="405.171875" y="684.445312" xlink:href="#b"/>
  <use x="426.273437" y="684.445312" xlink:href="#k"/>
  <use x="444.714844" y="684.445312" xlink:href="#a"/>
 </g>
</svg>
