<?xml version="1.0" encoding="UTF-8"?>
<svg width="700pt" height="700pt" version="1.1" viewBox="0 0 700 550" xmlns="http://www.w3.org/2000/svg" xmlns:xlink="http://www.w3.org/1999/xlink">
<g>
  <path d="m400.47 256.23h8.0625c3.5664 9.3008 8.9414 20.031 15.363 32.336 9.0391 17.242 20.059 37.18 30.719 58.238 20.875 41.121 39.543 86.52 40.445 122.37-3.3672 4.6992-8.5547 9.3633-15.398 12.02-5.3086 2.0703-11.074 2.9805-16.258 2.7891-0.16797-33.77-13.547-73.828-27.844-114.14-14.445-40.762-29.875-81.629-35.09-113.61zm-27.707 0h11.02c5.2188 35.516 21.555 77.648 36.262 119.12 14.91 41.969 27.352 82.898 26.383 112.58-4.4492 6.4531-12.445 11.473-22.457 13.84-7.9414 1.8477-16.531 2.1406-23.078 1.4609-0.77344-33.121-7.0234-77.254-13.516-121.95-6.6055-45.723-13.32-91.68-14.613-125.05zm-29.039 0h12.57c1.3008 35.094 8.1367 81.504 14.785 127.46 6.6719 45.949 12.539 90.289 12.992 121.73-10.922 9.4648-21.355 13.258-34.121 13.258-12.738 0-23.172-3.7656-34.066-13.223 0.45313-31.402 6.3906-75.77 13.035-121.76 6.6641-45.957 13.504-92.367 14.805-127.46zm-27.578 0h11.105c-1.293 33.375-7.9961 79.328-14.641 125.06-6.4883 44.695-12.738 88.828-13.516 121.95-6.5781 0.71484-15.164 0.39062-23.141-1.4609-10.012-2.3633-18.02-7.3867-22.457-13.84-0.96875-29.688 11.473-70.609 26.352-112.58 14.742-41.48 31.082-83.613 36.297-119.13zm-24.766 0h8.0391c-5.1836 31.98-20.609 72.852-35.07 113.62-14.285 40.312-27.676 80.371-27.832 114.14-5.1836 0.19141-10.949-0.71484-16.27-2.7891-6.8711-2.6562-12.051-7.3242-15.398-12.02 0.87891-35.848 19.543-81.242 40.418-122.37 10.695-21.062 21.711-41 30.758-58.238 6.4141-12.309 11.793-23.035 15.355-32.34zm1.4336-38.504h114.3c-2.3633 7.3242-3.6289 14.715-2.9414 22.031l-108.41 0.003907c0.69141-7.3125-0.57812-14.703-2.9414-22.035zm-8.8477-176.12 7.6406 0.03125c3.3789 13.285 6.0312 26.73 12.543 40.051 7.5156 15.355 19.961 30.012 41.684 42.555 2.5586 1.4492 5.6992 1.4492 8.2617 0 21.711-12.543 34.152-27.199 41.641-42.555 6.5469-13.32 9.207-26.773 12.543-40.051l7.6836-0.03125v46.988c0 18.312 1.9414 31.98 6.9375 43.262 3.8828 8.7109 10.98 14.609 18.176 20.508-6.3516 12.613-15.555 27.031-23.652 42.16-1.168 2.2383-2.207 4.5039-3.3398 6.7773l-128.24 0.003906c-1.1367-2.2695-2.1719-4.5352-3.3672-6.7773-8.0703-15.133-17.305-29.551-23.664-42.16 7.2227-5.8984 14.328-11.797 18.219-20.508 4.9844-11.281 6.9375-24.957 6.9375-43.262v-46.992zm-8.2383-16.469c-4.5312 0-8.2305 3.7031-8.2305 8.2305v55.227c0 17.105-1.8711 28.48-5.5078 36.586-3.5898 8.1328-8.8398 13.582-17.664 19.48-3.3672 2.2344-4.5977 6.6016-2.9102 10.305 7.0938 15.324 18.211 31.727 26.539 47.344 8.3633 15.625 13.191 30.039 10.883 39.5-1.8711 7.9141-8.5547 22.133-17.43 39.117-8.8711 16.988-19.961 37.039-30.82 58.434-21.711 42.785-42.809 90.676-42.809 132.61 0 1.4258 0.39062 2.8438 1.1016 4.082 5.543 9.625 15.031 16.426 25.438 20.484 8.5547 3.3359 17.852 4.7969 26.863 3.6289 7.7852 9.6562 19.48 14.941 31.02 17.629 11.531 2.7188 23.004 2.918 32.535 1.1992 14.16 12.215 29.941 16.172 45.203 16.004 15.289 0.16797 31.078-3.7891 45.273-16.004 9.5273 1.7188 20.961 1.5195 32.504-1.1992 11.531-2.6875 23.238-7.9688 31.012-17.629 9.0117 1.168 18.344-0.29297 26.898-3.6289 10.402-4.0586 19.867-10.859 25.41-20.484 0.71484-1.2383 1.1016-2.6562 1.1016-4.082 0-41.938-21.098-89.832-42.816-132.61-10.852-21.387-21.934-41.445-30.812-58.434-8.8867-16.98-15.555-31.203-17.473-39.117-2.2656-9.457 2.5625-23.875 10.895-39.5 8.3555-15.625 19.469-32.027 26.574-47.344 1.6875-3.7031 0.44922-8.0703-2.918-10.305-8.8125-5.8984-14.062-11.348-17.664-19.48-3.6289-8.1094-5.543-19.48-5.543-36.586l-0.003906-55.227c0-4.5312-3.6602-8.2305-8.1953-8.2305h-21.969c-3.7344 0-6.9688 2.5312-7.9453 6.1289-4.2734 16.004-7.0625 30.434-13.316 43.199-5.5078 11.273-15.879 21.387-31.012 31.336-15.109-9.9492-25.48-20.059-30.988-31.336-6.2539-12.77-9.0117-27.199-13.285-43.199-0.96875-3.6328-4.25-6.1289-7.9688-6.1289z"/>
  <use x="70" y="653.332031" xlink:href="#f"/>
  <use x="92.832031" y="653.332031" xlink:href="#e"/>
  <use x="108.175781" y="653.332031" xlink:href="#b"/>
  <use x="129.273437" y="653.332031" xlink:href="#j"/>
  <use x="150.269531" y="653.332031" xlink:href="#a"/>
  <use x="165.140625" y="653.332031" xlink:href="#b"/>
  <use x="186.242188" y="653.332031" xlink:href="#i"/>
  <use x="219.34375" y="653.332031" xlink:href="#h"/>
  <use x="241.613281" y="653.332031" xlink:href="#g"/>
  <use x="272.722656" y="653.332031" xlink:href="#f"/>
  <use x="295.554688" y="653.332031" xlink:href="#d"/>
  <use x="317.703125" y="653.332031" xlink:href="#s"/>
  <use x="339.972656" y="653.332031" xlink:href="#d"/>
  <use x="362.121094" y="653.332031" xlink:href="#a"/>
  <use x="376.996094" y="653.332031" xlink:href="#c"/>
  <use x="70" y="684.445312" xlink:href="#r"/>
  <use x="83.535156" y="684.445312" xlink:href="#e"/>
  <use x="98.878906" y="684.445312" xlink:href="#c"/>
  <use x="120.25" y="684.445312" xlink:href="#q"/>
  <use x="163.5" y="684.445312" xlink:href="#a"/>
  <use x="178.371094" y="684.445312" xlink:href="#p"/>
  <use x="200.519531" y="684.445312" xlink:href="#b"/>
  <use x="232.453125" y="684.445312" xlink:href="#o"/>
  <use x="258.488281" y="684.445312" xlink:href="#c"/>
  <use x="279.863281" y="684.445312" xlink:href="#d"/>
  <use x="302.011719" y="684.445312" xlink:href="#n"/>
  <use x="334.992188" y="684.445312" xlink:href="#m"/>
  <use x="357.792969" y="684.445312" xlink:href="#e"/>
  <use x="373.136719" y="684.445312" xlink:href="#c"/>
  <use x="394.507812" y="684.445312" xlink:href="#l"/>
  <use x="405.171875" y="684.445312" xlink:href="#b"/>
  <use x="426.273437" y="684.445312" xlink:href="#k"/>
  <use x="444.714844" y="684.445312" xlink:href="#a"/>
 </g>
</svg>
