<?xml version="1.0" encoding="UTF-8"?>
<svg width="700pt" height="700pt" version="1.1" viewBox="0 0 700 550" xmlns="http://www.w3.org/2000/svg" xmlns:xlink="http://www.w3.org/1999/xlink">
 <g>
  <path d="m539.27 487.2h54.707v23.527h-54.383zm-433.29 0h54.637l-0.29297 23.527h-54.344zm115.02-20.582h257.9v23.527h-257.9zm10.234-373.3c38.98 42.062 77.652 55.746 118.75 55.746 41.09 0 79.688-13.684 118.67-55.746 24.859 7.2227 43.625 14.129 53.281 34.547l72.043 152.05v193.18h-54.863l-2.0156-154.88c0-0.94141-0.19141-1.8711-0.51562-2.7891l-41.738-111.41c-3.2109-8.5859-15.949-6.2891-15.949 2.8828v245.62l-257.89 0.007812v-245.63c-0.03125-9.1328-12.699-11.43-15.949-2.8828l-41.738 111.41c-0.32422 0.91406-0.49219 1.8477-0.52344 2.7891l-1.9727 154.88-54.836-0.003906v-193.18l71.949-151.95c9.6875-20.488 28.414-27.422 53.305-34.648zm180.34-41.641c15.332 5.9219 27.945 16.719 42.105 31.789-35.262 36.84-67.082 49.125-103.71 49.125-36.617 0-68.512-12.277-103.77-49.125 14.129-15.078 26.801-25.867 42.129-31.789 4.25 12.922 10.66 26.93 19.281 38.949 10.535 14.641 24.664 27.086 42.359 27.086 17.691 0 31.789-12.445 42.285-27.086 8.6602-12.02 15.078-26.02 19.316-38.949zm-104.51-0.87891c14.16 2.2383 28.07 4.4727 42.941 4.375 14.879 0.097656 28.742-2.1328 42.879-4.375-3.8281 10.371-7.5234 21.23-13.969 30.238-8.9805 12.469-19.312 20.184-28.941 20.184-9.6328 0-20.031-7.7148-29-20.184-6.457-9.0078-10.113-19.902-13.91-30.238zm-13.254-17.82c-0.74609 0-1.4922 0.09375-2.2344 0.29297-24.832 6.6445-42.875 21.934-62.289 43.488-27.777 9.9805-55.676 21.746-65.824 43.133l-73.207 154.65c-0.52344 1.1016-0.77734 2.2969-0.77734 3.5352v240.85c0.03125 4.5352 3.7031 8.2305 8.2305 8.2305h70.754c4.5039 0 8.1641-3.6289 8.1953-8.1328l2.5938-199.14 25.305-67.574v246.03c0 4.5352 3.6641 8.2383 8.207 8.2383h274.36c4.5742 0.023438 8.2617-3.6641 8.2617-8.2383l0.003907-246 25.281 67.543 2.5586 199.14c0.070313 4.5039 3.7344 8.1328 8.2383 8.1328h70.742c4.5039 0 8.1953-3.6914 8.1953-8.2305l-0.003906-240.85c0-1.2383-0.25391-2.4336-0.77344-3.5352l-73.215-154.65c-12.445-26.281-44.004-36.84-65.812-43.133-19.414-21.586-37.465-36.84-62.289-43.488-1.3945-0.39062-2.8867-0.39062-4.2812 0-18.145 4.0117-34.992 5.5742-54.113 5.5742-19.09-0.03125-35.969-1.625-54.184-5.6445-0.62109-0.16797-1.2383-0.22266-1.8867-0.22266h-0.03125z" fill-rule="evenodd"/>
  <path d="m273.04 354.14-31.043 67.242c-2.0391 4.1484-0.25391 9.1406 3.9258 11.082 4.1797 1.9414 9.1328 0.070312 10.98-4.1484l26.707-57.688h132.71l26.676 57.688c1.8398 4.2109 6.8008 6.0898 10.98 4.1484 4.2109-1.9414 5.9688-6.9375 3.9492-11.082l-31.078-67.242z"/>
  <use x="70" y="653.332031" xlink:href="#f"/>
  <use x="92.832031" y="653.332031" xlink:href="#e"/>
  <use x="108.175781" y="653.332031" xlink:href="#b"/>
  <use x="129.273437" y="653.332031" xlink:href="#j"/>
  <use x="150.269531" y="653.332031" xlink:href="#a"/>
  <use x="165.140625" y="653.332031" xlink:href="#b"/>
  <use x="186.242188" y="653.332031" xlink:href="#i"/>
  <use x="219.34375" y="653.332031" xlink:href="#h"/>
  <use x="241.613281" y="653.332031" xlink:href="#g"/>
  <use x="272.722656" y="653.332031" xlink:href="#f"/>
  <use x="295.554688" y="653.332031" xlink:href="#d"/>
  <use x="317.703125" y="653.332031" xlink:href="#s"/>
  <use x="339.972656" y="653.332031" xlink:href="#d"/>
  <use x="362.121094" y="653.332031" xlink:href="#a"/>
  <use x="376.996094" y="653.332031" xlink:href="#c"/>
  <use x="70" y="684.445312" xlink:href="#r"/>
  <use x="83.535156" y="684.445312" xlink:href="#e"/>
  <use x="98.878906" y="684.445312" xlink:href="#c"/>
  <use x="120.25" y="684.445312" xlink:href="#q"/>
  <use x="163.5" y="684.445312" xlink:href="#a"/>
  <use x="178.371094" y="684.445312" xlink:href="#p"/>
  <use x="200.519531" y="684.445312" xlink:href="#b"/>
  <use x="232.453125" y="684.445312" xlink:href="#o"/>
  <use x="258.488281" y="684.445312" xlink:href="#c"/>
  <use x="279.863281" y="684.445312" xlink:href="#d"/>
  <use x="302.011719" y="684.445312" xlink:href="#n"/>
  <use x="334.992188" y="684.445312" xlink:href="#m"/>
  <use x="357.792969" y="684.445312" xlink:href="#e"/>
  <use x="373.136719" y="684.445312" xlink:href="#c"/>
  <use x="394.507812" y="684.445312" xlink:href="#l"/>
  <use x="405.171875" y="684.445312" xlink:href="#b"/>
  <use x="426.273437" y="684.445312" xlink:href="#k"/>
  <use x="444.714844" y="684.445312" xlink:href="#a"/>
 </g>
</svg>
