<?xml version="1.0" encoding="UTF-8"?>
<svg width="700pt" height="700pt" version="1.1" viewBox="0 0 700 550" xmlns="http://www.w3.org/2000/svg" xmlns:xlink="http://www.w3.org/1999/xlink">
<g>
  <path d="m454.98 170.96 20.961 62.812c9.0781 27.152 33.281 41.77 58.309 37.457l43.848 131.02-182.29 48.906-37.656-112.58 0.35547-38.727c19.891-7.2383 34.578-24.863 34.645-49.555l0.125-71.008c24.629-1.6133 44.859-4.5938 61.707-8.3281zm-210.04 0c24.242 5.3516 55.875 9.1094 96.801 9.5625l-0.054688 82.312c-0.58984 11.531 17.004 11.531 16.457 0l0.03125-82.312c6.4141-0.070313 12.637-0.19922 18.598-0.42188l-0.12891 70.191c-0.023438 21.555-11.051 34.289-27.832 37.434-3.8594 0.74219-6.6758 4.082-6.7148 7.9961l-0.37891 42.785-37.602 112.65-182.25-48.906 43.848-131.02c24.98 4.2812 49.188-10.305 58.266-37.457zm-41.285-13.121c6.9023 3.1797 15.332 6.2891 25.281 9.1406l-20.582 61.605c-6.7031 20.059-20.738 28.871-37.332 26.801zm292.64-0.03125 32.637 97.582c-16.625 2.0703-30.656-6.7031-37.363-26.801l-20.578-61.605c9.9805-2.8555 18.398-5.9648 25.305-9.1758zm-276.59-48.031c21.969 11.574 54.016 23.695 130.27 23.695 76.184 0 108.27-12.051 130.24-23.625l10.797 32.211c-21.621 10.402-65.602 22.133-141.04 22.133-75.445 0-119.42-11.73-141.04-22.133zm-4.8398-18.988c-3.6289-0.09375-6.9023 2.207-8.0312 5.6445l-103.38 308.9c-1.5234 4.5039 1.1016 9.332 5.668 10.57l198.21 53.18c4.2109 1.1016 8.5547-1.2266 9.9102-5.375l32.672-97.844 32.762 97.84c1.3633 4.1484 5.707 6.4766 9.9102 5.375l198.21-53.176c4.5742-1.2383 7.1602-6.0664 5.6758-10.57l-103.38-308.9c-1.625-4.9609-7.4219-7.1602-11.965-4.5352-20.508 11.867-48.383 25.117-131.14 25.117-82.805 0-110.68-13.258-131.22-25.117-1.168-0.6875-2.5312-1.0781-3.8984-1.1094z"/>
  <use x="70" y="653.332031" xlink:href="#f"/>
  <use x="92.832031" y="653.332031" xlink:href="#e"/>
  <use x="108.175781" y="653.332031" xlink:href="#b"/>
  <use x="129.273437" y="653.332031" xlink:href="#j"/>
  <use x="150.269531" y="653.332031" xlink:href="#a"/>
  <use x="165.140625" y="653.332031" xlink:href="#b"/>
  <use x="186.242188" y="653.332031" xlink:href="#i"/>
  <use x="219.34375" y="653.332031" xlink:href="#h"/>
  <use x="241.613281" y="653.332031" xlink:href="#g"/>
  <use x="272.722656" y="653.332031" xlink:href="#f"/>
  <use x="295.554688" y="653.332031" xlink:href="#d"/>
  <use x="317.703125" y="653.332031" xlink:href="#s"/>
  <use x="339.972656" y="653.332031" xlink:href="#d"/>
  <use x="362.121094" y="653.332031" xlink:href="#a"/>
  <use x="376.996094" y="653.332031" xlink:href="#c"/>
  <use x="70" y="684.445312" xlink:href="#r"/>
  <use x="83.535156" y="684.445312" xlink:href="#e"/>
  <use x="98.878906" y="684.445312" xlink:href="#c"/>
  <use x="120.25" y="684.445312" xlink:href="#q"/>
  <use x="163.5" y="684.445312" xlink:href="#a"/>
  <use x="178.371094" y="684.445312" xlink:href="#p"/>
  <use x="200.519531" y="684.445312" xlink:href="#b"/>
  <use x="232.453125" y="684.445312" xlink:href="#o"/>
  <use x="258.488281" y="684.445312" xlink:href="#c"/>
  <use x="279.863281" y="684.445312" xlink:href="#d"/>
  <use x="302.011719" y="684.445312" xlink:href="#n"/>
  <use x="334.992188" y="684.445312" xlink:href="#m"/>
  <use x="357.792969" y="684.445312" xlink:href="#e"/>
  <use x="373.136719" y="684.445312" xlink:href="#c"/>
  <use x="394.507812" y="684.445312" xlink:href="#l"/>
  <use x="405.171875" y="684.445312" xlink:href="#b"/>
  <use x="426.273437" y="684.445312" xlink:href="#k"/>
  <use x="444.714844" y="684.445312" xlink:href="#a"/>
 </g>
</svg>
